<svg id="_レイヤー_2" data-name="レイヤー 2" xmlns="http://www.w3.org/2000/svg" viewBox="0 0 154.42 67"><defs><linearGradient id="_名称未設定グラデーション_2" data-name="名称未設定グラデーション 2" x1="137.5" y1="4637.02" x2="142.64" y2="4661.11" gradientTransform="matrix(1 -.00262 -.00262 -1 6.93 4684.11)" gradientUnits="userSpaceOnUse"><stop offset="0" stop-color="#5e825d"/><stop offset="1" stop-color="#e06d5e"/></linearGradient><style>.cls-1,.cls-2{fill:#5e825d;stroke-width:0}.cls-2{fill:#e06d5e}</style></defs><g id="_レイヤー_1-2" data-name="レイヤー 1"><path class="cls-1" d="M39.68 64.81c.21-.05.49-.18.57-.2.02 0 .05.06.05.06 0 .06-.03.82-.03 1.14s0 .57.02.77c0 .19.13.2.28.24.09.03.13.06.13.1 0 .03-.07.06-.13.06-.04 0-.33-.02-.45-.02-.19 0-.39.03-.49.03-.09 0-.15-.02-.15-.06 0-.04.04-.06.14-.09.13-.04.22-.11.23-.16.02-.08.02-.43.02-.6 0-.01 0-.83-.01-.9 0-.04-.07-.09-.23-.21-.04-.02-.05-.04-.05-.06 0-.04.05-.09.12-.1zm.66-1.07c0 .15-.16.28-.28.28-.04 0-.13-.02-.19-.07a.293.293 0 01-.09-.21.4.4 0 01.07-.21.34.34 0 01.22-.07c.15 0 .26.18.26.28zm6.83.95c.38 0 .58-.07.78-.07.02 0 .04.02.04.04 0 .07-.09.12-.12.13-.31.07-.41.13-.67.31-.17.13-.44.4-.46.44-.01.02-.01.04 0 .06.2.24.75.84.93 1.02.11.1.21.17.39.21.1.02.14.07.14.09 0 .06-.07.07-.14.07-.13 0-.42-.03-.72-.03h-.26c-.08 0-.14-.02-.14-.07 0-.04.05-.06.13-.08.12-.03.14-.08.07-.16s-.36-.39-.66-.73c-.06-.07-.12-.13-.14-.13-.02 0-.03.03-.03.05-.03.07-.03.63 0 .8.02.12.06.15.21.19.07.02.13.04.13.09 0 .05-.07.06-.14.06-.14 0-.34-.01-.48-.01-.2 0-.36.02-.49.02-.07 0-.13-.02-.13-.06 0-.04.06-.06.13-.09.23-.06.27-.11.3-.26.02-.11.04-1.22.04-1.98s-.02-1.07-.04-1.22c0-.02-.01-.05-.18-.15-.05-.03-.07-.06-.07-.08 0-.02.03-.06.07-.07.06-.02.35-.08.5-.18.06-.04.09-.05.12-.05.01 0 .05.05.04.07-.03.14-.05 1.63-.05 2.12 0 .22 0 .53.02.58.01.03.02.05.05.05.03 0 .07-.04.12-.07.19-.18.51-.47.61-.62.02-.03.04-.09-.22-.13-.03 0-.05-.02-.05-.04s.06-.11.1-.11h.27-.02zm8.22 1.08c0 .48-.29.85-.5.99-.23.17-.45.23-.72.23-.27 0-.55-.12-.77-.3-.25-.2-.43-.59-.43-.88 0-.44.18-.72.4-.9.18-.15.47-.32.85-.32.57 0 1.16.45 1.16 1.18zm-1.65-.83c-.15.14-.28.44-.28.74 0 .19.03.37.07.51.14.43.47.64.75.64.06 0 .19-.03.35-.19.14-.15.26-.51.26-.76 0-.3-.07-.63-.29-.89a.731.731 0 00-.49-.22c-.12 0-.26.06-.37.17zm6.83-.19c.21-.05.49-.18.57-.2.02 0 .05.06.05.06 0 .06-.03.82-.03 1.14s0 .57.02.77c0 .19.13.2.28.24.09.03.13.06.13.1 0 .03-.07.06-.13.06-.04 0-.33-.02-.45-.02-.19 0-.39.02-.49.02-.09 0-.15-.02-.15-.06 0-.04.04-.06.14-.09.13-.04.22-.11.23-.17.02-.08.02-.43.02-.59 0-.01 0-.83-.01-.9 0-.04-.07-.09-.23-.21-.04-.02-.05-.04-.05-.06 0-.04.05-.09.12-.1zm.66-1.06c0 .15-.16.28-.28.28-.04 0-.13-.02-.19-.07a.293.293 0 01-.09-.21.4.4 0 01.07-.21.34.34 0 01.22-.07c.15 0 .26.18.26.28zm11.24 1.02c.1-.03.3-.11.39-.17.06-.04.11-.06.14-.06s.06.06.06.09c0 .1-.02.23-.02.29 0 .03.03.02.03.02.23-.15.53-.32.77-.32.28 0 .44.13.53.22.13.15.2.42.2.7 0 .11.02.97.02 1.05.01.09.07.16.21.2.11.03.14.06.14.1s-.08.06-.17.06c-.13 0-.27-.01-.43-.01-.14 0-.33.01-.4.01-.05 0-.13-.02-.13-.07 0-.04.06-.07.13-.1.14-.05.17-.1.18-.29.01-.19.02-.89.02-1.06 0-.21-.11-.37-.18-.43a.706.706 0 00-.37-.11c-.26 0-.41.09-.51.19a.26.26 0 00-.06.14c0 .07 0 1.32.01 1.39 0 .08.03.13.21.18.06.02.11.05.11.09 0 .04-.06.07-.14.07h-.35c-.21 0-.38.02-.48.02-.09 0-.15-.02-.15-.07 0-.04.06-.07.12-.09.19-.06.22-.12.24-.33.02-.18.03-.68.03-1.26 0-.06-.01-.12-.14-.22-.07-.05-.11-.08-.11-.1 0-.04.06-.1.1-.12h-.01zm9.83.99c0 .48-.29.85-.5.99-.23.17-.45.23-.72.23-.27 0-.55-.12-.77-.3-.25-.2-.43-.59-.43-.88 0-.44.18-.72.4-.9.18-.15.46-.32.85-.32.57 0 1.16.45 1.16 1.17zm-1.65-.83c-.15.14-.28.44-.28.74 0 .19.03.37.07.51.14.43.47.64.75.64.06 0 .19-.03.35-.19.14-.15.26-.51.26-.76 0-.3-.07-.63-.29-.88a.731.731 0 00-.49-.22c-.12 0-.26.06-.37.17zm13.6-.34c.06.01.18.06.19.06s.05.05.05.08c0 .1.02.3.02.34 0 .05-.02.11-.07.11-.02 0-.06-.03-.09-.1-.13-.27-.27-.38-.46-.38-.23 0-.35.24-.35.36 0 .2.19.35.57.56.33.19.45.38.45.65s-.19.46-.34.57c-.1.07-.3.13-.49.13s-.46-.05-.56-.13c-.02-.03-.09-.27-.09-.44 0-.06.01-.12.04-.12.05 0 .09.07.12.13.16.29.32.41.53.41.07 0 .17-.04.23-.09.09-.07.13-.21.13-.32 0-.15-.08-.28-.26-.38-.14-.1-.18-.13-.35-.24-.18-.11-.36-.31-.36-.58 0-.2.1-.38.31-.52.11-.07.27-.12.46-.12.11 0 .23.02.29.03zm6.84.22c.09.12.12.23.12.48 0 .22-.02.96-.02 1.02 0 .27.19.29.23.29.02 0 .15-.04.22-.09.02-.01.02 0 .04.02s.02.05.02.06c0 .11-.26.36-.52.36-.13 0-.3-.07-.37-.29 0 0-.02-.03-.03-.02-.21.15-.46.25-.52.27-.06.02-.2.04-.23.04-.2 0-.4-.25-.4-.53 0-.11.05-.21.11-.29.06-.07.14-.1.23-.14.09-.04.55-.17.68-.2.13-.04.17-.07.17-.11 0-.05.01-.41.01-.47 0-.14-.17-.38-.45-.38-.12 0-.2.04-.23.06-.04.02-.05.12-.04.23 0 .02-.02.05-.03.06-.06.05-.35.19-.37.19-.04 0-.07-.05-.07-.07 0-.17.16-.33.43-.51.17-.12.43-.22.54-.22.29 0 .43.14.52.27v-.02zm-.38 1.72s.07-.13.07-.14c.01-.14.01-.34.01-.45 0-.02-.02-.05-.05-.05-.16 0-.44.1-.59.18-.06.04-.12.08-.12.22 0 .26.25.35.36.35.09 0 .2-.04.31-.1zm7.23-1.96s.06.03.06.05c0-.02.02.14.02.22 0 .05-.11.06-.15.06h-.63s-.05.03-.05.04c0 .12-.01.97-.01 1.24 0 .14.04.22.1.28.11.1.23.11.35.11.07 0 .2-.04.28-.09.05-.03.06-.03.09-.03 0 0 .03.01.03.06 0 .05-.04.11-.08.14-.15.15-.36.26-.62.26-.23 0-.44-.14-.51-.27-.06-.1-.07-.22-.07-.38 0-.21.02-1.08.02-1.28 0-.04-.11-.08-.22-.12-.05-.02-.08-.05-.08-.06 0-.02.02-.05.03-.06.2-.16.38-.3.46-.4.07-.08.11-.13.13-.13.03 0 .08.05.08.06v.27s.02.05.05.05c.13 0 .69-.03.71-.03h.01zm7.43 1.11c0 .48-.29.85-.5 1-.23.17-.45.23-.72.23s-.55-.12-.77-.3c-.25-.2-.43-.59-.43-.88 0-.44.18-.72.4-.9.18-.15.47-.32.85-.32.57 0 1.16.45 1.16 1.17zm-1.64-.84c-.15.14-.28.44-.28.74 0 .19.03.37.07.51.14.43.47.64.75.64.06 0 .19-.03.35-.19.14-.15.26-.51.26-.76 0-.3-.07-.63-.29-.88a.731.731 0 00-.49-.22c-.12 0-.26.06-.37.17zm-93.6-28.1s-.29.38-.3.42c-2.72 4.23-3.03 4.69-5.45 8.35-.55.95-.68 1.25-.72 1.41-.11.42-.04 2.17-.14 2.55-.28 1.07-1.23 1.75-2.29 1.76-3.16.01-5.81-4.63-4.5-11.4.23-1.18 1.48-6.32 1.65-7.39.44-2.66.22-3.43-.29-5.36 2.87.22 4.13 1.66 4.58 2.39.25.34.67 1.06.28 2.55-.11.42-.28.76-.46 1.18-1.15 2.33-2.1 4.34-2.63 6.32-.95 3.58.08 6.01.8 6.01.5 0 1.77-1.22 2.49-1.95 1.74-1.68 5.79-5.91 6.71-6.94l.27.11zm6.78 3.5c.28-.03 3.08-.34 3.44-.45.15-.03.54-.24.69-.81.13-.51.25-2.37-.35-4.06-.57-1.66-1.62-2.84-2.29-3.53 3.9-.07 7.07 4.55 5.93 8.83-.46 1.75-1.74 3.09-2.54 3.09-.57 0-.78-.29-1.26-1.15-.27-.44-.41-.71-1.34-1.09-.85-.35-1.79-.53-2.33-.62l.05-.21zm51.82-1.43s-.22.3-.23.33c-2.11 3.29-2.36 3.65-4.24 6.49-.43.74-.52.98-.55 1.09-.09.33-.03 1.69-.11 1.99-.22.83-.96 1.37-1.78 1.37-2.45 0-4.52-3.6-3.51-8.87.18-.92 1.16-4.91 1.29-5.75.34-2.07.18-2.66-.22-4.17 2.23.17 3.21 1.3 3.56 1.86.2.27.52.83.21 1.98-.09.33-.21.59-.36.92-.89 1.81-1.63 3.38-2.04 4.92-.74 2.79.06 4.67.62 4.67.38 0 1.38-.95 1.94-1.52 1.36-1.31 4.5-4.6 5.22-5.4l.21.09zM84 41.48c.21-.03 2.4-.26 2.67-.35.12-.02.42-.19.53-.62.1-.39.19-1.85-.27-3.16-.44-1.29-1.26-2.21-1.79-2.74 3.04-.05 5.5 3.54 4.62 6.86-.36 1.36-1.35 2.4-1.97 2.4-.44 0-.61-.23-.99-.9-.21-.35-.31-.55-1.04-.85-.67-.27-1.39-.41-1.81-.48l.04-.16zm-41.08-6.82c-1.37 5.17 4.71 5.19 7.04 5.18 2.83 0 4.87-.28 7.78-.94.31-.06.55-.1.91-.1 1.15 0 3.07.82 2.72 2.13-.28 1.05-1.34 1.48-1.97 1.72-1.78.63-6.2.67-8.56.68-2.27 0-6.04-.05-8.31-1.62-1.06-.72-2.72-2.4-2-5.13.41-1.55 2.09-3.92 3.78-4.71-.92 1.48-1.16 1.88-1.4 2.8zm6.63-7.52c.67-.43 3.6-2.28 4.19-2.68.15-.06.47-.3.5-.39.05-.2-.33-.26-.42-.26-2.79-.38-4.22-1.21-5.01-2.19-.88-1.02-.66-2.24-.52-2.86 1.4 1.64 2.89 2.23 7.5 2.22.59 0 3.15-.11 3.68-.11 2.4 0 3.84 1.4 3.48 2.72-.36 1.35-1.87 1.36-2.69 1.36-2.66 0-4.48.01-10.64 2.43l-.07-.23zm53.9 16.54c4.95-1.78 11.02-5.36 12.76-11.95 1.17-4.42-.61-8.17-6.52-8.15-.85 0-1.12.06-1.51.19.51.27 1.03.61 1.51 1.31.37.55.52 1.25.37 1.83-.29 1.1-3.62 5.5-4.77 6.96-1.01 1.29-5.45 6.78-7.49 7.67-.31.15-.6.21-.88.21-.94 0-1.18-.61-1.65-1.92-.23-.61-.26-.64-.87-1.31-.72-.76-.78-2.23-.4-3.66 1.79-6.75 9.05-12.31 16.68-12.33 5.89-.02 10.7 3.42 8.97 9.95-.82 3.08-2.7 5.71-5.69 7.79-3.74 2.6-8.6 3.35-10.5 3.62v-.21zm-6.69-9.25c-.34 1.28-.55 4.27.73 4.27s3.59-3.18 5.52-5.78c1.09-1.47 3.85-5.22 4.32-6.99.27-1.04-.06-1.71-.21-1.98-3.81 1.05-9.03 5.45-10.36 10.49z"/><path d="M146.72 20.95l1.56-1.45c.27-.3.46-.46.73-.46.15 0 .38.15.53.3l2.12 1.9c.12.11.38.3.26.76-.13.5-.96 1.03-1.87 1.6-.46 1.75-1.31 5.06-1.71 6.59-.33 1.22-.93 3.92-1.22 5.03-.42 1.56-1.53 2.17-3.09 2.18-1.33 0-1.26-.68-1.03-1.56l.05-.19-6.05.02-1.72 6.47 6.66-.02 2.24-2.29c.32-.34.51-.5.74-.5s.49.3.59.38l2.05 2.32c.14.19.29.34.23.57-.1.38-.45.42-.68.42l-12.07.03-3.52 12.65h-3.84l3.52-12.64-8.11.02c-2.32 0-3.18.09-4.18.28l-.23-1.41c2.3.22 4.96.21 5.34.21l7.42-.02 1.72-6.47-6.01.02c-.04.3-.08.46-.14.68-.39 1.48-2.36 2.02-3.08 2.03-1.48 0-1.21-1.02-1.05-1.63.29-1.1 1.65-6.09 1.92-7.08.43-1.64 2-7.7 2.18-8.95.09-.45.1-.8.16-1.75l4.18 2.01 15.42-.04zm-15.92.95l-1.58 5.98 6.01-.02 1.58-5.98-6.01.02zm-1.83 6.9l-1.58 5.98 6.01-.02 1.58-5.98-6.01.02zm16.15-.96l1.58-5.98-6.05.02-1.58 5.98 6.05-.02zm-1.82 6.89l1.58-5.98-6.05.02-1.58 5.98 6.05-.02z" fill="url(#_名称未設定グラデーション_2)" stroke-width="0"/><path class="cls-1" d="M0 59.42l154.42-.4s-14.85-12.37-24.36-8.85c-16.37 6.06-20.94 7.04-25.76 5.85-2.67-.66-9.89-6-14.23-5.98-4.33.01-8.43 2.43-10.35 3.64-1.93 1.21-8.43 2.67-11.07 2.68-2.65 0-17.83-1.64-23.37-2.35-5.54-.71-6.99-.46-11.08.75-4.09 1.22-18.78 3.9-34.2 4.66z"/><path class="cls-2" d="M87.12 7.2c.01 3.99-3.22 7.24-7.21 7.25s-7.24-3.22-7.25-7.2c0-3.99 3.23-7.24 7.22-7.25 3.99-.01 7.23 3.22 7.25 7.21z"/><path class="cls-2" d="M92.49 14.42s-10.37 8.28-23.28.06c-12.91-8.22-23 .06-23 .06s10.76-5.02 22.59 3.02c10.69 7.26 18.71 2.87 23.69-3.14z"/><path class="cls-2" d="M67.34 14.48s10.42 8.23 23.28-.06c12.87-8.29 23-.06 23-.06S102.84 9.4 91.04 17.5c-10.65 7.31-18.7 2.96-23.7-3.02z"/></g></svg>